<svg xmlns="http://www.w3.org/2000/svg" viewBox="0 0 640 480"><path fill="#ffd520" d="M0 0h640v480H0z"/><path fill="#ff4e12" d="M0 480h640V0z"/><g stroke="#000" stroke-width=".5"><g fill="#fff" stroke-width=".4"><path d="M345 150q-6-1-6 6 1 8 7 6z"/><path d="M349 140q-6-3-8 4-2 9 4 8z"/><path d="M354 131q-4-4-8 2-3 8 3 9zm-3 46c-5 1-6 8-3 12q6 7 12 0z"/><path d="M345 162q-7 0-9 11c-1 7-11 9-6 20q3-11 10-11 9 1 11-5zm15 28q-8 3-2 14c3 4 13 3 13-1zm15 43c0-4-7-6-11-5s-10 0-12-4q-1 5 6 8 5 3 3 5c3 1 11 1 14-4z"/><path d="M371 204c-5-3-9 1-11 4-2 5-12-1-15 6 5-2 9 2 11 3 5 4 16 3 18-6z"/><path d="M374 210q-7 7-7 12c0 3 4 10 9 11 3-6 5-18-2-23zm-22 25q1-3 5-2 4 0 4 4zm-29-11c0-2 3-6 8-4s6 6 4 8z"/><path d="M335 228q0-2 10-2 8 4 7 9zm-13-4q5-5-1-8c-5-3-3-10-6-11q-6-2-7-6-3 5 2 8c2 2-2 11 1 13zm-69-2c-2-4-9-3-11 0s-3 7 0 9zm16-6c-1-6-8-6-12-5q-7 3-4 11z"/><path d="M279 215c3-5-2-12-8-13q-7 0-11-5-1 5 5 9c3 2-1 7 5 11z"/><path d="M279 215c-2-3 1-8 5-7q8 0 6 8z"/><path d="M289 216q-1-7 7-7c8 0 6 5 4 8z"/><path d="M299 217q1-6 7-6 9 2 4 9zm-78 59q-10-1-12 11c-1 11 14 13 12-11z"/><path d="M225 265c-13-5-20 16-33 12 4 7 16 0 20 1 7 1 23-2 13-13zm-8 28c-7-3-14 7-13 12 2 5 17 1 13-12zm-31 44q7 0 7 10c0 10-14 21-26 22-11 0-16 15-26 11 10-2 10-13 17-16-5-2-8 10-15 10s-10 11-19 10-9 14-26 14c-13 0-29 15-35 9q16-4 25-17c12-12 26-7 30-18a32 32 0 0 1-18 6c-8 0-16 12-25 7q6-1 14-9c5-6 13-2 20-8 10-9 18-1 28-13q-5-1-14 3c-5 2-12-2-18 1 0-8 15-3 24-8q15-7 26-4c-11 0-15-11-31-8-6 2-12-9-18-3 0-4 7-8 14-4s10-3 25 6c6 4 16-2 22 2q-1-4-9-4c3-6 20-5 28 1z"/><path d="M197 328c-5-4-13 1-19-1q0 7 8 11z"/><path d="M206 316c-9-5-10 7-17 4q0 5 8 8z"/><path d="M212 306c-14-5-15 7-23 5 2 4 13 6 19 5zm18-56c-4-5-11-1-12 5-2 6 1 14 6 12z"/><path d="M239 235c-6-1-13-1-13 5-2 1-3 9 4 10z"/><path d="M243 231q-10-9-17-4c-7 6-13 2-13 8 4-3 7 0 11-1 3-1 6 6 15 3zm-15 104c1 2 7 2 9-1 4-3 0-14-6-14-5-1-6 11-3 15z"/><path d="M222 335c8 3 11-4 7-8z"/><path d="M191 346c-1 5-9 6-18 20s-18 8-20 18c11-8 19-3 26-11 10-13 18-12 21-20 6-13 29-13 31-33-8-1-33 20-40 26zm204-194c10 3 10 16 22 21s13 15 23 12c-9-2-9-13-18-15-11-3-15-20-24-23m44 74q3 9-5 14 6 3 11-5-5 16 6 20c-4-7 4-10 1-14q8 4 8 11c6-6-4-14-2-20zm-67 67c-6-6-9 1-12-1q-5-4-8-1c5 1 2 5 13 6-10 0-9 12-16 12 8 7 12-7 18-5-2 1 3 5-1 11 6 0 8-7 8-11zm-139 60c-2-2-9-3-11-1q-4 2 1 2c5 0 7 5 0 5-3 0-2 8-8 8 2 4 10 1 13-2-1 3 3 5 2 9 4 0 2-10 9-9-3 0-2 7 4 5q-5 5 2 5-4 1 0 5c3-4-1-19-12-27zm281-142a18 18 0 1 0 0-36 18 18 0 0 0 0 36z"/><path d="M423 227q10-9 20-4c5 4 24 9 33 2s14-9 18-9q5 7 12 8l9 2q6 2 13-5 10 1 14-10c7-1 7-8 3-13-4-1-1-14-15-12 6 4 2 11 6 15q-6-1-8 6 1-5-1-6c0-3-7-11-13-8 4 1 2 8 5 11l-6 3q-5-5-11-6l-1-4q-2-5-2-12l-7 12c-5-4-17 1-23 2s-25-1-29-6a49 49 0 0 0-21-10c-11-3-11-15-23-23 0 15 22 62 27 67zM297 341a17 17 0 1 0 0-34 17 17 0 0 0 0 34z"/><path d="M256 328q7 5 12 4c2 5 8 5 11 8s13 3 16 1q-4 0-9-5c-4-3-3-9-6-12l3-8 4-5a15 15 0 0 0 10-4c2 2 7-1 10 3 1-9-7-13-13-11-2-1-8 0-9 2-1-1-7 1-9 3 3-1 3-6 2-7q4-2 5-6l10-1q-6-7-15-6-8 2-9 9c-3 2-5 9-3 12q-3 0-5 3l-9-2m1-7q-1-6 1-9 4-10-5-8z"/><path d="M249 282c1 2 7 3 7-2q1-9-6-6z"/><path d="M250 274q4 3 9-2 2-6-5-7z"/><path d="M254 264c0 2 5 7 9 3q6-6-2-11z"/><path d="M261 256c1 3 5 9 12 6s4-11 1-12z"/><path d="M274 250c-1 2 0 10 9 10s6-11 4-12q-7-1-14 2z"/><path d="M287 248c-1 2-3 17 15 13 2-1 8-14-15-13z"/><path d="M297 249c-2 2 3 17 15 14 12-2 2-16-15-14z"/><path d="M307 252c-2 4 1 15 16 15 14 0 0-15-16-15z"/><path d="M319 255c-1 2-2 15 16 16 12 1 9-17-16-16z"/><path d="M338 260c-2 4-4 14 15 15 12 0 5-14-15-15z"/><path d="M354 263c-3 4-1 12 7 13 9 2 10-7 4-11s-11-2-11-2z"/><path d="M363 265c-2 4-1 12 13 12 3 0 13-11-13-12zM257 433a20 20 0 1 0 0-40 20 20 0 0 0 0 40z"/><path d="m404 142-5 8c-7 20 11 35 21 56a63 63 0 0 1-5 61c-5 6-3 8-9 13q-4 3-4 14 7 0 10 5 4-2 7 1 7-3 12 3 5-1 10 3 4-5 9-4 0-8 8-6a8 8 0 0 1 10-9c4-4 14-4 18 1-8-2-8 7-15 6q2 7-7 10 5-3 7-1 6-3 9-1 6-2 8 4 9 6 5 16c-1-6-5-6-7-8q-5 2-8-1c-2 2-9 4-12 1q-2 7-10 8 1 7-5 13 5 5 2 11c7 1 1 7 13 10-6 2-17 0-19-7q-8-1-9-11-7-7 1-15c-5 2-8-6-15-3-4 2-14-1-14-4-1 2-11 1-12-3-3 1-10-1-10-6q-8 2-9-5-5-2-4-7-4-3-1-9-4-4 0-9-3-4-1-9c-12-1-28-4-63-15-54-17-68 22-57 46 14 28-1 34 3 55q9 2 8 9 5 1 4 8l7 3q5-6 11-1 10 1 10 12a18 18 0 0 1-2 19v-9c0-4-6-5-5-8q-5 0-7-4l-7 1q6 4 5 12 3 6-1 11-1 8-9 5 3-3 3-8l-3-6c-5 1-12-3-13-5a20 20 0 0 0-20 20c0-4-6-8-5-12q-5-15 14-20c-2-3 4-7 2-11l-15-20q6-13 1-24c-4-9-8-7-21 8-21 23-50 17-75 32-7 4-13 6-6-1s26-15 39-21c23-12 42-31 50-69 18-88 85-59 127-42 40 15 33-20 13-41-25-25-20-45-8-61 20-3 59 4 51 11z"/><path d="M476 359a22 22 0 1 0 0-44 22 22 0 0 0 0 44z"/></g><g fill="none" stroke-width=".4"><path d="M392 143c-5 21-1 31 6 41 15 19 27 64 10 94"/><g stroke-linecap="round"><path d="M418 252q5 0 6-7m-5-2c1-4 7-5 7-9m-7-6c0-3 6-7 5-11m-8-2c-1-3 5-7 3-10m-7-4c-2-2 2-5 1-8m-8-3 1-7m-7-6q3 0 2-4m-6-5q2 0 3-3"/><path stroke-linejoin="round" d="M266 411q-9-2-13 5m4 4c1-4 7-6 9-4-4-3-6 6-2 6m34-104q-4 4 1 12m4-11c-2 2-2 8 1 9q-2-4 2-6 4 1 1 5m177 5c-7-2-13 7-6 14q1-11 11-11m-3 5-3 3q0 2 4 3l2-3m23-161q3 7 12 5m0-2q-6-1-7-7c0 2 5 3 6 2"/><path d="M268 332c-1-3 3-6 3-8q2-4 9 0m-2-27-2 1m11 13-5-1m0 6-4 1m-40 77q1 4 4 6m6-12-1 8m21 0q-3-4-1-8c-1-3 2-7 8-3m-29-4h6m23-7-1 4m12-5-4 3m-21-68c2 0 8 4 8 7m14-24c-6 0-9-7-4-7m15 15q-3 3 3 8m-18 33q-1-5 5-5m5 52c0-4 5-6 7-2m-26 13q0-6 4-6t6 4m-48 5q1-4 5-5m231-109c-2 1-3 7 3 7m-13 2 1 2m29 8c-1-1-6 4-2 8m-39 36q0-6 6-4m-14-22 7-4m-8 18q1-5 3-7m9-29 2 9m28-9-4 3m2 8 2-2m47-111q-2 7-8 4m17-3c2 1 9 0 8-4m-16 24-5-3m19-7-5-1m-31 14 6-2m-10-21-4 1m30 5-3 5"/><path stroke-linejoin="round" d="M498 213c3-2 7 9 15 6m0-12-2 6"/></g><path d="m359 190 3-1M227 310q6 4 5 12m172-143h8m3 2c0 2 0 9-3 10m1-1c3 1 10 1 12-5m-5 5q4 6-3 10m4-6c4 1 13 2 12-6m-3 6c3 4 14 8 12 1m-22 10c4 1 10-2 8-10m12 4c0 3 15 6 13-1m-3 4c3 6 17 6 13-2m-3 6c3 3 16 1 11-7m0 7c8 6 17-3 7-9m4 7c7 5 16-5 10-7m-65 5q5 1 8-4m-2 3c0 6 10 8 12 1m-3 4c2 4 11 5 12 0m-1 2c1 4 9 4 11 0m-3 2c2 5 12 5 14-2m-2 3c4 2 12 2 11-6m-1 6c5 4 13 0 9-8m0 13c3 0 4-6 1-8m-70 9q10-5 3-14m3 9c3 2 11 0 12-6m-7 6q3 5 0 10m2-6c6-4 15 4 9 8m-1-8q3-2 4-7m-1 10c2-3 22 3 10 9m-1-17q6 3 0 8m5 4c4-4 17-1 12 4m-3-5c2-8 16-3 11 0m-14-8-2 7m14-9-1 6m9-6q2 3-1 7m-109-66q-1 13 13 8m-10 1c-5 7 1 14 10 7m-25-4c7 7 19 2 11-9m8 15c-1 7 5 9 9 5m-34-10c1 7 9 13 16 9m-7 1c0 10 14 11 17 1m-5 6c5 10 14 6 18 0m-28-15c2 5 6 10 14 6m-40-8c2 4 8 8 16 3m-11 2c-4 6 4 12 14 3m-9 4c2 9 5 16 17 5m-6 4c5 6 11 9 18 0"/><path d="M387 189q-1 10 6 9 6-1 10-6m-11 6c0 8 6 13 17 6m-12 3c-2 5 4 14 16 10m-42-25c-1 7 6 12 16 3m-11 5c1 6 7 13 17 3m-12 4c-1 10 8 13 16 5m-30-12 5-3m-1 10q4 1 7-3m-2 15c2 2 9 1 10-2m-2 2c4 9 14 8 18-2m-2 4q3 8 15 7m-11-2c-4 8 1 16 12 8m-9 3q-1 9 9 11m-29-24q0 16 16 10m-26-5q3 3 11 0m5 6c-3 9 6 15 14 6m-27-11q1 9 12 8m21 9q-9 7 1 14m-13-16q0 9 8 9m-16-11c-8 7 0 15 9 8m-3 2c-3 8 7 13 12 5m-28-22q-4 13 7 13m-18-15q2 8 10 6m-7-1q-3 12 9 8m21 15q-2 6 6 9m-5-3q-12 7-3 16m-4-24a8 8 0 0 0 2 12m-35-35c-5 4-1 16 9 9m16 5c-6 6-3 14 6 12m-16-15q-4 13 7 12"/><path d="M359 236a8 8 0 0 0-1 12q5 4 8-2m-18-13c-6 7 0 16 9 14m23 8c-6 2-11 8-7 13 2 2 12 3 14-8m-18-12q-5 8 4 12m-4-2q-7 2-6 9m-3-17q-2 9 4 11m-4-4q-9-1-7 8m1-7q-9-4-4-12m-1 8q-9 1-9 7"/><path d="M341 230q-7 5-5 11 4 7 10 1m-18-17c-4 5 1 14 8 11m-19-15c-3 6 1 15 11 12m0 25c-1-6 6-10 14-2m-4-13-3 8m-28-33c-4 7 1 14 10 11m14 7q-8 10 0 16m-4-9c-9 0-10 11-2 14m-5-24c-4 2-5 9 1 12m-1 4q-8-2-8 4m2-4c-4-9-14-7-13 1m16-12q-4 1-9 5m1-14a7 7 0 0 0 3 12m-15-25q-2 9 8 8m-6-1q-3 11 8 9m-6-1q-5 9 2 13m-4-6c-8-1-9 7-6 11"/><path d="M293 216q-8 4-5 11 6 4 10 0m-8 1q-4 9 3 12"/><path d="M275 215c-3 3-1 9 6 9q10-1 7-9m-8 9q-3 10 8 10m4 8c-5-2-13 0-10 7m0-16q-3 6 1 10m-2-2q-6 1-5 9m0-5c-5-1-11 2-7 7m-1-5c-4 0-9 4-5 8m-1-3c-4 1-8 5-4 8m22-29q-7 5-3 13m-3-23c-7 3-7 13 1 16m-3-2q-7 6-3 11m-5-29c-3 1-3 10 5 10m-14-7c-6 4 1 15 11 7m-5 3q-2 7 7 9m-7-4c-5 2-5 12 3 13m-18-22c-7 6 5 11 9 3m-18 7c-3 4 8 13 13-3m1 0q0 6 7 6m0 4c-8 1-10 11-2 13m-12-14q0 5 8 6m3 7c-7 2-7 11-1 10m-3 9c-6-2-6-9-1-11"/><path d="M246 268c-5 3-3 10-1 11s5 0 5-3m0 10c0 4-12 2-6-8m0 9c-4 7 3 12 7 6m-6 2c-2 5 4 9 9 5m-23-55c-2 5 9 7 10-3m-13 10c-2 10 15 8 11-4m0 6a8 8 0 0 0 12-6m-6 6 5 7m-13-4q0 8 10 8m-9-3c-3 4-4 11 5 11m-19-10c-1 4 7 8 12 2m-15 8c0 3 7 7 11-6m-3 7c2 3 8 6 12-1m-6 4q-2 9 7 8m-17-9c-1 7 7 10 11 7m-16-4c-2 8 8 11 12 5m-2 3c0 4 7 8 13 4m-26 0c-1 2 8 4 9-3m-4 4c2 6 9 7 13 0m-2 3q3 9 12 4m3 2c-2 7 5 12 9 9m-20-10c-2 7 7 11 12 7m-23-11q0 11 11 8m-23-7c-1 5 8 8 13 4m-18 8c2 3 11 0 11-6m-2 4c3 4 10 6 13-2m-2 4c0 6 10 10 13 0m11 2c-1 2 2 7 6 7m-14-9q1 6 9 6m1 1q-2 6 4 8m-4-2q-5 6 3 8m-4-3c-5 3-4 10 3 10m-18-24c0 7 9 8 10 2m-3 4q-1 7 7 7m-6 42c1 2 6-1 5-4s-7-1-6 2m4-3c1-5-6-6-7-1m2-3c2-3-4-7-6-3m2-1c1-5-5-6-5-3m-2-5c1-2 8-1 5 3m6 6c2-3-2-8-5-6m24 13q-5 1-3 7c1 3 6 3 7 1"/><path d="M261 366q-6-2-5 5 3 5 6 1m-14 0c1 3 7 2 8 0m-4-6q2-1 4 1m-4-33c-4 3-2 10 4 8m-6-2c-3 3 0 10 6 7m-5 0c-2 2 0 8 5 7m-6-4q-3 0-5 2m2-28q-4 6 4 9m-5-3c-4 2-4 10 4 10m-4-1c-3 2-1 9 4 8m-2-1-1 4m-2-6q-4 0-5 3m-4-7c1-2 7-2 7 4m1-7q-2 0-3 3m0-22c-2 3-4 10 5 12m-10 4c0-2 5-4 7 0m-11-11q3 3 7 2m-28-15a6 6 0 0 0 7 7q7-3 4-7m-3 7c-3 3 1 8 4 7m-1-10c2 0 8-1 9 2m-27-1c-1 2 7 4 10 1m-3 1q-1 6 8 6"/><path d="M220 327q0-6-8-2c-8 4 1 8 3 7m-12-14c-2 3 5 10 9 4"/><path d="M198 324c-3 3 0 8 4 6 4-1 4-6 3-7"/><path d="M193 329c-3 2 0 7 3 7s4-3 4-6m5-1c-1 3 4 5 7 2m0-6-1-2m-23 10c-3 2 3 8 6 2m13-3c-1 1 1 5 4 4m-13-1c1 2 6 5 10 0m-7 2q-1 4 3 5m49 11c-2 4 4 9 9 4m-5 2q-1 4 2 6m-8-1q1-4 6-3m-9-2q1-4 4-3m147-78c-9 0-5 15 3 12m-5-1c-2 3 1 8 5 5m-1 1c-3 4 7 11 11 4m-3 3c0 4 12 7 11-2m-2 5c3 5 14 5 13-2m-2 5c2 3 13 5 12-2m-56-40q3 6 12 3m-16-1c4 3-1 13-7 9m8-2q7 3 10-5m-3 4q2 5 11 4m-21-1c6 5-2 14-5 10m7-6c3 1 9 0 10-4m-3 4q1 4 6 4m-14 0c2 3 9 4 12 0m-3 2q0 7 7 6m-21 2c3 2 7-5 4-9m0 16c4 0 4-6 1-10m8 15c3-1 2-8-6-9m16 15c3-1 1-9-8-9m20 12c3-4-5-9-11-6m17 10c4 1 7-9-6-8m14 8c3-1 6-7-4-5m12 6c3 1 4-8-5-5m-47-23c4 2 10-1 9-6m-1 5q1 4-2 8m2-3q4 2 8-4m-4 4v7m1-4q5 2 8-4m-2 3c2 1 4 7 0 10m2-3q5 1 8-3m-1 2q4 1 4 7m0-1q5 0 8-5m-2 2a7 7 0 0 1 4 7m0-3q3 0 5-4m-1 2q3 2 4 5m0-1 4-3m5-1c3 3 0 10-5 9m-44-165c-5 3-18 2-12-9m13 2c-9 3-21-4-9-12m-3-2a9 9 0 0 0-3 17m-27-12c-2 4 5 8 10 4 4-3 4-11 1-14m-15 20c-3 8 16 9 13-5m-14 17c0 7 18 4 12-9m2-3q2 4 12 5m-9-14q2 4 10 2M185 335c-4 3 3 8 5 2m-8 0c-4 3 2 8 5 3m-9 0c-4 3 3 8 5 2m-9 0c-4 2 1 8 5 3m-9-1c-4 2 1 8 5 3m17-10c0 4 6 5 8 0m-4 3q-2 6 3 5m-12-5c0 3 6 4 8 1m-5 2q0 4 4 4m-10-5q1 5 6 4m-4-1q-2 2 1 5m-8-5c0 2 3 6 6 3m-5-1q-3 3 1 5m-6-5q0 4 4 3m-15-3c-2 1 3 7 6 2m-11 0c-3 2 4 8 6 2m10-2q-3 3-1 5m-5-4 4 3m-6-2q-3 3 2 4m-9-2q-1 3 2 3m2-3q0 2 3 1m-13-2c-2 1-2 6 6 3m-11-1c-3 1-2 6 5 2m0 0q-1 2 2 2m-7-1q-3 3 2 3m-9-2c-2 1 3 3 6-1m-4 2q-2 3 1 3m-8-1q-2 2 6 0m-4 1q-3 4 1 3m-6-2q-2 3 4 2m-4 0q-4 5 0 3m114 7q-1 3 4 3 4-2 3-5m0 3q4 2 6-3"/></g><g fill="#fff" stroke-width=".4"><path d="M397 103c-10-5-32-15-38-7 6-2 22 0 35 13z"/><path d="M403 103c-12-14-19-11-27-16-8-4-21-5-24 2 12-6 23 3 29 4 9 1 15 8 17 12zm45-2c-6-14-20-11-25-17-9-8-30-17-39-11 19-1 28 14 38 19 8 4 16 11 26 9z"/><path d="M425 99c-11-13-27-24-35-20 10 0 13 7 20 12 7 4 4 10 15 8zm-51 23c-10-4-32-6-42 7 16 3 42 1 42-7z"/><path d="M372 127c-11-5-19 2-30 1q-31-4-36 9c12-10 31-2 39-4s36 0 45 4q-8-7-18-10zm35-29c-2-9-2-18 10-17-3-4-14-6-16 9-14-10-30-12-33-3q12-10 32 13z"/><path d="M388 110c-8-6-19-14 0-17-8-5-20-3-19 12-21-9-37-6-40 3-4 10 10 15 12 9-2 1-11-2-6-7s26-2 48 9c6 3 26 3 5-10z"/><path d="M382 124c-6-13-26-1-30-14-6 18 28 8 30 14zm127 13c4 2 8-1 2-3 4 2 8-1 1-4 4 2 8-1 2-4q-4 5-5 11zm2-24c10-10 0-13 11-23 9-8 2-14 11-20 2-2 9-6 9-10 4 9-11 10-10 25 0 10-6 9-9 25 0 3-3 11-12 3z"/><path d="M516 118c5-11 11-11 14-16 5-8 16 2 26-6-2 11-15 7-20 14s-11 9-20 7z"/><path d="M517 121c9-7 16-2 22-6 15-10 22 2 36-3-4 9-25 2-34 8s-40 13-24 1zm-26 51q-1-7-10-9c-5-1-7-7-12-7-4 0-6-9-12-8-6 0-8 7 5 14s28 14 29 10zm-17 4c-6 0-7 9-12 9 7 4 13-2 17-7z"/><path d="M479 177c-5 4-7 13 0 15-4-6 8-8 4-14z"/><path d="M483 177c-3 8 6 9 4 14 6-1 6-12 1-14z"/><path d="M446 161q14 1 23 13c4 5 16 7 20 3s2-13-9-10c-2-4-10-3-13-6s-18-14-21 0z"/><path stroke-linecap="round" d="M480 167q-4 3-1 7m7-4-1 4m-25-12c5 0 6 3 11 5"/><path d="M457 150a161 161 0 0 1 38 12q13 8 31 3c11-3 33-6 31 8q8-12-16-16c1-6-7-12-12-8 5-1 9 8 0 12a8 8 0 0 0-12-10c4 1 9 9-1 11-6 2-16 0-22-4s-45-19-37-8z"/><path d="M499 143c-5 3-2 8-10 11q-14 6-12 16c6-12 15-11 18-16s9-11 4-11z"/><path d="M500 144c0 9-8 6-5 19q3 7 0 18c8-6 3-19 7-24l5-9c-2 5-2 16 3 18-4-10 12-18 1-30q-4 6-11 8zm-26-9q2 4 1 9 5-2 8-8c5 1 7 7 2 10q6 1 11-3c-3-4-14-11-22-8z"/><path d="m394 116-5-2c-8-2-4-9 3-8 14-16 22-4 39-9q9-2 14 0 12-7 23 3l3-3q9 0 13 10 7 0 13 5 8-4 10 0 7-5 13 4c6 9-7 5-9 19-1 9-11 13-19 7-12-8-25-10-31 3-6 14-11 21-26 17a16 16 0 0 0-17 6c-4 6-11 1-19 1 10-1 6-4 15-4 8-1 6-8 11-9-20 5-19-3-36 3 8-10 19-4 25-10-15 0-22-10-29-6-10 7-6 25-33 23q-19-1-30 9c14-28 33-13 42-22l12-14 4-4c-23-7-9-18 14-19z"/><path stroke-linecap="round" d="M507 112v3c0 6-8 6-9 14q1 8-3 6-7-2-3-10"/><path d="m398 108-6-2m53-9c6 3 10 10 20 11 9 0 15 14 31 5l1-1m-29-12-1 8m-30 21q-16 2-15 12 1 15 15 14c14-1 16-7 16-13s-6-13-16-13z"/><path d="M439 154c0-3-6-2-6-5s3-4 3-7 6-4 8-1c1 3 7 8 8 5m-9-5a10 10 0 0 0 0 13m4-9v7"/><path fill="none" d="M496 136c9 0 11-10 4-11m-16-18c-3-4-11-5-11 4"/><path d="M472 121c-3-8-11-9-16-5-4 3-4 12 4 14q5-7 12-9zm-3-5c-5-4-12 3-6 11m-83 8q4 0 15 4c4 2 17 7 26 2-9 3-15-9-22-8-6 2-18 4-23-1 12 1 19-8 32 0a24 24 0 0 0 14 3c-12-13-27-4-28-16 7 8 23-1 32 13m-30-10-2-6"/></g><path stroke="none" d="M484 108c-3-3-9-1-7 5a10 10 0 0 1 7-6m-18 16 6-3-4-5c-1-1-6 4-2 8"/><path fill="none" stroke-linecap="round" stroke-width=".4" d="M459 114q-8-5-11-1-5 1-6 7m7 3c-5-4-13-3-12 6m-4 4q5-4 10 1m32-9q-2 2 0 7-4-6-13 4m25-11q-10 3-1 7m-47-24c-5-1-9 2-2 5m13-9q-12-1-7 2m-16 30c0 3 1 7 6 3m-4 6-1 2m-18-40c-5-1-6-6 0-5m-2 16c-5-2-5-7-1-7m11 4c-6-1-6-6-1-5m2-8c-3-1-8 3 0 5m10 2q-11 0-3 4m9-11q-10 0-4 4m-15 18c-2-1-3-7 4-5m10 3c-5-1-9 4-5 6m11-11q-9-1-6 2"/><path fill="#fff" stroke-width=".4" d="m484 108-7 5"/></g></svg>