<svg xmlns="http://www.w3.org/2000/svg" xmlns:xlink="http://www.w3.org/1999/xlink" viewBox="0 0 640 480"><path fill="#fff" d="M320 0h320v480H320z"/><path fill="#ffe000" d="M0 0h320v480H0z"/><g stroke="#000" stroke-linejoin="round" stroke-width="3.2"><g fill="#ce9d09" stroke-linecap="round" transform="translate(123)scale(.192)"><g id="a"><path fill="#fff" d="m1781 990 16 4 26 4 12 2-2 50s-3 33-8 48c-4 12-16 34-16 34l-8 11-45-39 11-17 7-24 5-26 2-32zm-57 152 41 36s-8 7-13 9a74 74 0 0 1-32 8 58 58 0 0 1-22-6c-16-8-33-15-43-29q-5-8-5-18c0-7 6-20 6-20l5 12a49 49 0 0 0 18 13 43 43 0 0 0 36 1z"/><path fill="#fff" d="m1659 878 4 10q3 9 3 18l-3 19-11 26-8 16-11 27-9 22q-4 15-6 32l-2 27q-1 17 2 33c3 16 5 21 10 31a79 79 0 0 0 32 35l18 7 25 10s-24-12-32-22a68 68 0 0 1-13-29 112 112 0 0 1-1-36 196 196 0 0 1 9-39l16-38 12-28q7-16 12-33l6-21-3-23a89 89 0 0 0-11-31 41 41 0 0 0-15-13q-10-5-19-4c-2 0-5 4-5 4"/><path fill="#fff" d="m1712 946 5-28q1-11-1-23 0-14-5-26a68 68 0 0 0-38-37 92 92 0 0 0-28-5 130 130 0 0 0-38 4l-12 6 30 49 15-7 17-1q9 0 17 3a57 57 0 0 1 17 13 74 74 0 0 1 15 22q4 12 5 24z"/><path d="M1717 907s-5-17-10-24a64 64 0 0 0-23-20c-9-4-31-6-31-6l12 21h-20l-10-18-20 9-9-16 20-9-9-15 20-2 9 15 24 1a58 58 0 0 1 27 15l12 14 7 17z"/><path d="m1582 845 32 47m-18-55-15 9-15 11 31 47 14-11 14-8zm58 199 18-37 19 8 8-19-19-9 9-22-14-6-10 21-19-8-9 20 19 7-17 37zm143-11 18-1v21l18 1-3 22-17-1-5 18c-2 6-10 18-10 18l-19-5 10-17 5-17-20-2 4-21 18 2z"/></g><use xlink:href="#a" width="100%" height="100%" transform="matrix(-1 0 0 1 3717.8 0)"/><path fill="#fff" d="m1757 736-28 29 17 51 10 36-28 26 51 71-18 19-2 9q1 4 4 7 7 5 17 7 32 8 65 10h28q33-2 65-10 9-2 17-7a12 12 0 0 0 1-16l-16-36 52-55-20-18v-43l17-51-26-26-23-61s-5-17-9-25l-9-13-13-14-14-9q-8-5-17-7c-6-2-19-2-19-2s-13 0-19 2q-9 2-17 7l-15 9-12 14-10 13c-4 8-8 25-8 25z"/><path d="m1963 933-5-4-12-6-17-5a197 197 0 0 0-44-5l-26 1-26-1a195 195 0 0 0-44 5l-18 5-12 6-5 4m219-43-8-6-7 2a13 13 0 0 0-4 15q1 4 4 5c5 2 16-2 16-2zm5-3q8 1 10 6m-243-3-1 14s11 4 16 2l4-5a13 13 0 0 0-4-15l-7-2zm-6-3q-7 1-9 6m198 2-8-1m-130 1 8-1m76 0c-3 0-8-4-8-4m-22 4 7-4m141-19-7 4h-1l-4 9-6 6-8-5h-6l-5 4-3 7 4 9-2 4-4 3-19-8-4-9 5-5q2-4 0-8-3-4-8-4l-6 2q-3 4-3 7l5 6c2 1-2 5-4 6q-8 4-15 4h-16l-9-5-1-3 9-4q4-2 6-8l-3-9-8-6-4-1-1 1-5 4h0l-1 1h-1l-2 1 5 3 1 3v2l-1 3-2 4-1 1q0 0 0 0h0l-4 2h-4q2 1 8-2h0l4-7v-3l-3-4c-2-2-9-3-9-3s-7 1-9 3l-3 4v3l1 2 3 5h0c2 2 8 2 8 2h-4l-4-2h0v0l-2-1-1-4-1-3v-2l1-3q3-3 5-3l-2-1h-1l-1-1h0l-5-4h-5l-8 6-3 9q1 5 6 8l9 4-1 3-9 5h-16l-15-4c-2-1-4-6-4-6s4-3 5-6q0-3-3-7l-6-2q-5 0-9 4v8l6 5-4 9-19 8-4-3-3-4s4-5 4-8l-2-7-5-5h-6l-8 5-6-6-4-8-1-1-8-4-4 1s-4 2-4 4q2 4 5 6l4 6 4 5v7q2 5 7 6c2 1 7-2 7-2v20l10 9 10 20-4 6 1 10q14-14 33-18c15-4 44-4 58-4h7s44-2 65 4q20 5 32 18l1-10-3-6 9-20 11-9-1-20s5 3 8 2q5-1 7-6v-7l3-5 4-6q5-2 6-6c0-2-4-4-4-4zm-148-3 5 4h0l2 1h16l2-1h0l5-4 1-2v-9q-3-4-8-6l-8-4-8 4q-5 2-8 6t0 9z"/><path d="m1981 830-17-7-32-7-37-6-12-4-16-2-8 5-8-5q-8-1-16 2l-12 4-37 6-32 7-17 7m197-45 8-5 2-6-2-6-6-2q-3 0-5 2l-3 5q-1 3 1 5zm-151 0 6-7 1-5-3-5-5-2-6 2-3 6 3 6zm-41 18-12 15 1 6 6 6 1 21-12 20h0l7 4h1q5-2 11-8l15-7a240 240 0 0 1 50-15l29-1c7 0 20 3 20 3l19-3a141 141 0 0 1 58 8l37 15q5 5 11 8h1l7-4h-1l-11-20 1-21 6-6v-6l-11-15s-6 6-10 7h-7l-6-5-13-12-6-8s-13 10-20 12q-12 3-24-1l-5-3a42 42 0 0 0-26-8 42 42 0 0 0-27 8s-3 3-5 3a45 45 0 0 1-23 1l-21-12-5 8-13 12-6 5h-7z"/><path d="M1986 796v-8l-3-7-6-6m-1 28 4-1c3-1 6-6 6-6s7 4 11 4q3-1 4-4l1-5q0-3-3-4l-7-4q-2-3 0-7 2-7 7-13 4-3 6-8l-2-4h-8q-6 2-11 7-3 4-4 9l-3 8-9 1-8 8v9q2 4 6 7zm-234-28-6 6-3 7v8m-17-45-2 4q2 6 6 8l7 13v7l-8 4-2 4 1 5q1 3 4 4c4 0 10-4 10-4l6 6 5 1s7-1 10-3q5-3 6-7v-9a17 17 0 0 0-9-8l-8-1-3-8q-1-5-4-9l-11-7zm135 14 9-2 8 2m-14 20s-7-6-8-10v-5l6-5s-7-3-9-6v-7l6-8 11-5 11 5 6 8-1 7c-2 3-9 6-9 6l6 5 1 5-8 10-6 1zm22-27s14 6 18 11l3 6c-1 7-11 18-11 18l-20-8h-13l-20 8s-9-11-10-18l2-6c5-5 18-11 18-11"/><path d="m1844 669 8-6h7-7l-4-4-1-6q0-5 4-7l8-1 8 1q4 2 4 7 1 3-1 6l-4 4h-7 6l8 6m53 5-3 5m33-20-8 1m9 9h-12m-1-13 5 4a10 10 0 0 1-4 9c-2 2-9 2-9 2m-182 34 17-5 25-5 28-4h70l28 4 24 5 17 5m-171-31 3 5m-33-20 7 1m-8 9h11m-6 16 19-4 21-4 24-2h58l45 6 19 4m-170-14s-7 1-10-1q-4-3-3-10l6-5m63 74-36 4-36 9c-11 5-23 23-32 16-2-2 1-5 1-8l8-12q6-3 9-7l-5-6v-10q3-6 8-11c1-3-3-8-1-11 2-4 11-3 12-7l-5-5 1-5-1-7-4-4 1-5 4-1q0-5-4-8l-4-10c0-3-3-7 0-8 3-2 5 3 8 5l9 8 3 9c3 2 8 0 11 3q4 3 3 8c-1 5-7 3-7 6q3 4 11 2l5-3 4-3 5-1h-2l-3-5 1-5 6-2 4 2 2 5-2 4-5 1 2 1 7 8 26-1 3-5q-1-3-6-3c-8 0-10-7-10-12 0-4 6-7 10-9 4-1 10 4 12 0 2-3-6-5-7-9v-4q3-5 10-8l5-1 5 1q6 2 9 8v4c-1 4-8 6-7 9 2 4 9-2 13 0s9 5 10 9c0 5-2 12-10 12q-5 0-6 3c-1 1 3 5 3 5l26 1 6-8 2-1-4-1-2-4q-1-3 1-5t5-2 5 2q3 3 2 5l-4 5h-2l6 1 4 3 5 3c3 1 9 1 10-2s-6-3-7-6q0-5 4-8c3-3 8-1 10-3q3-4 3-9l10-8c2-2 5-7 8-5q2 3-1 8l-4 10c-1 2-5 5-3 8l4 1 1 5-4 4-1 7v5c0 2-5 2-4 5 1 4 10 3 12 7 2 3-2 8-1 11l8 11q1 4-1 10c-1 2-5 4-4 6 0 4 6 4 8 7q5 5 8 12 3 5 2 8c-9 7-21-11-32-15a220 220 0 0 0-72-14zm31-134-10 1-10-1m17-33q2-8-7-14c-5 4-10 8-7 14m14 46c4 1 9 5 12 2v-5c-2-4-9-5-9-9s5-5 6-9v-5c-2-6-14-7-16-14-1-3 6-6 7-6 4-2 9 2 14 0q5-2 6-7-1-5-7-8c-6-2-16 6-20 1s8-11 7-17c-1-3-7-5-7-5s-6 2-7 5c-2 6 10 12 7 17-4 5-14-3-20-1q-6 3-7 8 1 5 6 7c4 2 10-2 14 0 1 0 8 4 7 6-2 7-14 7-17 14v5c1 4 7 5 7 9-1 4-8 5-9 9v5c3 3 8-1 12-2z"/><path fill="none" d="m1954 954-11-5-20-6-20-5h-88l-20 5-31 11m202-223-18-7-16-5-19-3-54-4-26 1-48 6-15 5-18 7m-14 120 26-8 28-8q16-4 34-5l33-3 33 3q18 1 34 5l28 8 26 8"/></g><g fill="#ccc" transform="translate(123)scale(.192)"><g id="b"><path d="m1533 904 101 87-7 17a143 143 0 0 0-9 41l-118-108c2-25 16-34 33-37z"/><path d="m1519 958-24 27 15 15-24 23-15-15-25 27v34l58 45 20-15-2-32 16 9 15-10 1 29-12-9-14 18-1 32 43 39 53-47-4-14-2-13-1-25 2-27z"/><path d="m1495 985-1 30 16-15z"/><path fill="none" d="m1572 1140-2 35m-19-140 1 32m-15-18 1 26m-14-36v29m-21 15v31m25-10 44 37 45-40m-171-66 58 49 18-17-15-13 17-15 13 11 15-15 19 18-18 14 16 14-15 14"/><path d="m1901 1229 49 45 11 31-63-6-36-36-38-35-164-142 6-19 11-28 3-7 183 163z"/><path d="M1943 1236c27 38 72 74 86 91s23 33 3 55-43 10-61-2-50-51-95-81z"/><path d="m1927 1300-35-16m41-38c2 8 0 16 3 24s14 20 14 20l-10 2c-5 2-12 3-13 8-1 4 4 8 7 11q4 5 10 8l20 9c8 1 25-11 26-2 1 3-7 1-11 3-7 3-11 12-4 17q7 5 17 3c5 1 11-2 16 0 6 4 13 11 10 17s-15 6-20 2q-4-6-4-14v-5"/><circle cx="2154.7" cy="1480.1" r="129.7"/><path fill="#fff" d="M2106 1486a41 41 0 1 0 41 40h14a41 41 0 1 0 40-41l1-8a41 41 0 1 0-41-40l-14-2a41 41 0 1 0-40 41z"/><circle cx="2154.7" cy="1446.1" r="14.6"/><circle cx="2189.4" cy="1480.1" r="14.6"/><circle cx="2155.3" cy="1511.2" r="14.6"/><circle cx="2119.3" cy="1480.1" r="14.6"/><path fill="#fff" d="M2152 1558q-7 15-22 22a63 63 0 0 0 44 0 54 54 0 0 1-22-22zm-76-80q-15-7-22-22a63 63 0 0 0 0 44 53 53 0 0 1 22-22zm159 4q15-9 22-22a63 63 0 0 1 0 44q-7-14-22-22zm-79-81q-7-15-22-22a63 63 0 0 1 44 0 53 53 0 0 0-22 22z"/></g><g fill="#ce9d09"><g id="c"><path d="M1534 904v-8l-7-10-9-4a25 25 0 0 0-18 4l-15 6-5 18-4 8-1 11 6 10 11 4 8-2q0-30 33-37z"/><path d="m1500 886-39-17-3 3 21 38 10-13z"/><circle cx="1457.3" cy="865.3" r="16"/><path d="M1566 932q5 42 16 84l31 29c-6-30-18-59-18-88z"/><path d="m1613 972-85-6 27 25 78 3 1-4zm105 95a62 62 0 0 0-37 37q-11 3-15-4a59 59 0 0 1 36-48c15-3 12 9 16 15zm28 26a62 62 0 0 0-38 37q-10 3-14-4a59 59 0 0 1 35-48c15-3 12 9 17 15zm313 262-15 1q1 12-12 26a33 33 0 0 1-24 12s-3 18 3 24 27 4 27 4l2-2a130 130 0 0 1 32-39v-2s3-16-2-21q-5-4-11 0z"/><circle cx="2254.5" cy="1375.4" r="17.7"/><circle cx="2260.6" cy="1580" r="17.7"/><circle cx="2062.1" cy="1591.6" r="17.7"/></g></g></g><g fill="#ce9d09" transform="matrix(-.192 0 0 .192 837 0)"><use xlink:href="#b" width="100%" height="100%"/><use xlink:href="#c" width="100%" height="100%" fill="#ccc"/></g><g fill="#fa0204" transform="translate(123)scale(.192)"><path id="d" d="M1869 1176q0 7-13 7t-13-8c0-8 4-6 13-6q13-1 13 7z"/><use xlink:href="#d" width="100%" height="100%" x="6.4" y="14.3"/><path d="M1877 1209q-2 7-15 2-12-4-9-11c3-7 6-5 14-2q13 4 10 11z"/><path id="e" d="M1878 1223q-1 7-15 4-13-2-11-10 1-7 14-4c13 3 13 4 11 10z"/><use xlink:href="#e" width="100%" height="100%" x="4" y="16.1"/><path d="M1922 1216q-4-2-2-8c1-4 9-9 9-9l1 8c-2 4-4 10-8 9z"/><path d="M1912 1224q-4-2-2-8c1-4 9-9 9-9s2 6 1 9-4 9-8 8zm-11 16c-4-1-3-9-2-13q2-8 7-8c4 1 4 8 3 12s-4 10-7 9z"/><path d="M1889 1252q-6-3-5-12 2-12 9-9c5 1 6 8 5 13q-2 8-9 8zm-2 8c-1 5-8 6-12 5s-9-7-8-12c1-6 8-7 12-6 4 2 9 8 7 13zm-85-50 7 5q4 3 3 7-2 5-8 0c-2-2-3-12-3-12zm25 9q7 3 2 11c-3 4-11 9-16 8s-5-8-2-12c3-3 11-8 16-7z"/><path id="f" d="M1844 1231q7 5 0 11c-3 3-12 6-17 4-6-2-3-9 0-12q8-6 17-3z"/><use xlink:href="#f" width="100%" height="100%" x="14" y="10.7"/><path d="M1863 1251c5 0 6 7 5 11-2 5-8 11-13 10s-6-8-4-12q3-9 12-9z"/><path d="M1875 1265q5 6 0 14c-2 4-9 8-13 6-5-2-3-10 0-14q6-7 13-6zm-86-40q7 2 7 11c0 5-3 12-8 13s-7-7-7-12c0-4 4-11 8-12z"/><path d="M1803 1238c4 1 5 8 4 12-2 5-7 11-12 10s-5-9-3-13q4-9 11-9z"/><path d="M1816 1246c5 1 6 10 4 16-2 5-8 13-13 12s-6-11-4-17c2-5 8-12 13-11z"/><path d="M1826 1257c5-1 9 7 10 13 0 6-3 15-9 16-5 0-9-8-9-14s3-15 8-15z"/><path id="g" d="M1839 1266c4-1 8 6 8 10 0 5-3 13-7 14-5 0-9-7-9-12s3-12 8-12z"/><use xlink:href="#g" width="100%" height="100%" x="12.8" y="10.4"/><path id="h" d="M1929 1251q-6 3-12-3c-3-3-6-10-2-13 3-3 10 0 13 3s5 10 1 13z"/><use xlink:href="#h" width="100%" height="100%" x="-7" y="12.8"/><use xlink:href="#h" width="100%" height="100%" x="-19.5" y="23.5"/><path d="M1905 1281c-1 4-8 6-12 5s-10-6-9-10c1-5 9-6 13-5q8 3 8 10z"/><path d="M1887 1278c4 3 3 11 1 15-3 5-9 10-13 7s-3-11 0-16c2-4 9-8 12-6z"/><path d="M1870 1288c4 2 3 9 0 13s-10 9-14 6c-4-2-3-10 0-14q6-7 14-6z"/><path id="i" d="M1831 1313c-3 3 0 11 3 15 4 4 12 8 15 5s1-12-3-16q-7-7-15-4z"/><use xlink:href="#i" width="100%" height="100%" x="-7.3" y="13.8"/><path id="j" d="M1821 1340c-5 1-5 10-3 15s8 12 12 10c5-2 5-11 3-17-2-4-8-10-12-8z"/><use xlink:href="#j" width="100%" height="100%" x="-10.5" y="14.9"/><path id="k" d="M1803 1371c-5 1-7 9-6 15 1 5 6 13 11 11s6-10 5-15-6-12-10-11z"/><use xlink:href="#k" width="100%" height="100%" x="-10.1" y="15.9"/><path id="l" d="M1784 1403c-5 0-8 8-8 14 0 5 4 13 8 13s9-9 8-14c0-6-3-13-8-13z"/><use xlink:href="#l" width="100%" height="100%" x="-10.3" y="19.2"/><use xlink:href="#l" width="100%" height="100%" x="-22.4" y="37"/><use xlink:href="#l" width="100%" height="100%" x="-34.9" y="52.3"/><use xlink:href="#l" width="100%" height="100%" x="-47.8" y="66.5"/><use xlink:href="#l" width="100%" height="100%" x="-62" y="78.1"/><use xlink:href="#l" width="100%" height="100%" x="-75.6" y="90.6"/><path d="m1693 1500-6 21s4 7 7 7c5-1 7-9 8-15 1-8-9-13-9-13zm324 13c2 6 15 12 15 12l-6-28c-6 0-10 12-9 16z"/><path d="M2016 1491c-4-2-10 4-13 9-2 5-2 14 2 16 5 2 12-5 14-10s1-13-3-15z"/><path id="m" d="M2001 1479c-5-1-9 7-9 12-1 6 2 14 7 15 5 0 9-8 9-14 0-5-3-13-7-13z"/><use xlink:href="#m" width="100%" height="100%" x="-13.4" y="-13.7"/><use xlink:href="#m" width="100%" height="100%" x="-25.9" y="-29.2"/><use xlink:href="#m" width="100%" height="100%" x="-38.7" y="-42.3"/><use xlink:href="#m" width="100%" height="100%" x="-49" y="-60.3"/><use xlink:href="#m" width="100%" height="100%" x="-60.3" y="-76.4"/><use xlink:href="#m" width="100%" height="100%" x="-70.6" y="-93.5"/><use xlink:href="#m" width="100%" height="100%" x="-79.8" y="-113.3"/><use xlink:href="#m" width="100%" height="100%" x="-89.8" y="-131.2"/><use xlink:href="#m" width="100%" height="100%" x="-98" y="-152.5"/><path d="M1884 1305s-2 26 8 28c6 1 11-15 11-15z"/><path id="n" d="M1862 1611c-3 3 1 11 5 14 4 4 13 7 16 3s-2-12-6-16c-4-3-12-5-15-1z"/><use xlink:href="#n" width="100%" height="100%" x="18.3" y="-2.2"/><use xlink:href="#n" width="100%" height="100%" x="36.8" y="-5.8"/><path id="o" d="M1916 1604c-2 4 3 11 7 14 5 3 14 4 16 0 3-5-3-12-8-15-4-2-13-3-15 1z"/><use xlink:href="#o" width="100%" height="100%" x="20" y="-3.2"/><path id="p" d="M1954 1595q-1 9 8 14c5 2 14 3 16-2s-4-11-10-13c-4-3-13-3-15 2z"/><use xlink:href="#p" width="100%" height="100%" x="18.9" y="-5.6"/><path id="q" d="M1991 1584q0 8 9 12c6 3 15 3 16-2 2-5-5-11-10-13s-13-1-15 3z"/><use xlink:href="#q" width="100%" height="100%" x="19.2" y="-6.2"/><use xlink:href="#q" width="100%" height="100%" x="37.7" y="-14"/><use xlink:href="#q" width="100%" height="100%" x="57.5" y="-22.2"/><use xlink:href="#q" width="100%" height="100%" x="77.5" y="-28.6"/><use xlink:href="#q" width="100%" height="100%" x="79.9" y="-44.3"/><path d="M2067 1535s13 2 14-3c2-6-15-13-15-13z"/><path id="r" d="M1702 1576c-4 2-3 10-1 15q6 9 14 8c8-1 3-12 0-17-3-4-9-9-13-6z"/><use xlink:href="#r" width="100%" height="100%" x="18.9" y="7.8"/><use xlink:href="#r" width="100%" height="100%" x="37" y="10.6"/><use xlink:href="#r" width="100%" height="100%" x="56.8" y="15.5"/><use xlink:href="#r" width="100%" height="100%" x="74.7" y="18.1"/><use xlink:href="#r" width="100%" height="100%" x="92.3" y="21.7"/><use xlink:href="#r" width="100%" height="100%" x="110.4" y="26.7"/><use xlink:href="#r" width="100%" height="100%" x="128.3" y="29.9"/><use xlink:href="#r" width="100%" height="100%" x="146.6" y="32.7"/><path d="M1648 1518c-4-3-11 3-13 7-3 5-4 14 0 16 5 2 12-4 14-9 3-4 3-12-1-14z"/><path d="M1642 1534c-4-1-10 5-12 10s-2 14 2 16c5 1 11-6 13-11s1-13-3-15z"/><path d="M1648 1550c-5-1-10 5-12 10-1 6 0 15 4 16s11-6 12-12c2-5 0-13-4-14z"/><path d="M1662 1556c-4-1-10 5-11 10-2 6-1 15 3 16s11-6 12-11c2-5 1-13-4-15z"/><path id="s" d="M1672 1559c-5 1-6 9-5 14 1 6 6 13 11 12s6-10 5-16c-2-5-7-11-11-10z"/><use xlink:href="#s" width="100%" height="100%" x="16.8" y="6.2"/><use xlink:href="#i" width="100%" height="100%" x="8.6" y="-11.2"/><use xlink:href="#i" width="100%" height="100%" x="4.7" y="6.5"/><use xlink:href="#i" width="100%" height="100%" x="4.9" y="26.7"/><use xlink:href="#i" width="100%" height="100%" x="4.7" y="47.9"/><use xlink:href="#i" width="100%" height="100%" x="5.6" y="68.6"/><use xlink:href="#i" width="100%" height="100%" x="2.2" y="87.7"/><use xlink:href="#i" width="100%" height="100%" x="4.7" y="109.1"/><use xlink:href="#i" width="100%" height="100%" x="2.2" y="126.4"/><use xlink:href="#i" width="100%" height="100%" x="4.7" y="143.5"/><use xlink:href="#i" width="100%" height="100%" x="4.7" y="163.9"/><use xlink:href="#i" width="100%" height="100%" x="3.4" y="183.9"/><use xlink:href="#i" width="100%" height="100%" x="3.7" y="203.1"/><use xlink:href="#i" width="100%" height="100%" x="4.4" y="223.5"/><use xlink:href="#i" width="100%" height="100%" x="4.4" y="243.3"/><use xlink:href="#i" width="100%" height="100%" x="3.7" y="263.1"/><use xlink:href="#i" width="100%" height="100%" x="2.5" y="283.2"/><use xlink:href="#i" width="100%" height="100%" x="2.5" y="305.1"/><use xlink:href="#i" width="100%" height="100%" x="1.9" y="327.9"/><use xlink:href="#i" width="100%" height="100%" x="1.9" y="349.3"/><use xlink:href="#i" width="100%" height="100%" x="1.9" y="369"/><use xlink:href="#i" width="100%" height="100%" x="1.3" y="391.3"/><path id="t" d="M1882 1303q3 8-5 14c-4 3-12 6-14 2-3-4 2-12 6-15s11-4 13-1z"/><use xlink:href="#t" width="100%" height="100%" x="2.7" y="16.1"/><use xlink:href="#t" width="100%" height="100%" x="2.4" y="34.1"/><use xlink:href="#t" width="100%" height="100%" x="2.1" y="52.4"/><use xlink:href="#t" width="100%" height="100%" x="1.8" y="69.1"/><use xlink:href="#t" width="100%" height="100%" x="2.7" y="87.1"/><use xlink:href="#t" width="100%" height="100%" x="1.5" y="104.4"/><path d="M1883 1426q3 8-5 15c-5 3-14 5-16 1s2-12 6-15c5-3 13-5 15-1z"/><path id="u" d="M1882 1444c4 3 1 11-3 15-3 4-12 8-15 5-4-4 0-12 4-17 3-3 11-7 14-3z"/><use xlink:href="#u" width="100%" height="100%" x=".6" y="20.4"/><use xlink:href="#u" width="100%" height="100%" x=".9" y="40.5"/><use xlink:href="#u" width="100%" height="100%" x=".3" y="62.1"/><use xlink:href="#u" width="100%" height="100%" x=".9" y="82.2"/><use xlink:href="#u" width="100%" height="100%" x=".3" y="102.6"/><use xlink:href="#u" width="100%" height="100%" x=".6" y="123"/><use xlink:href="#u" width="100%" height="100%" x=".6" y="143.7"/><use xlink:href="#u" width="100%" height="100%" x="-.3" y="164.4"/><use xlink:href="#u" width="100%" height="100%" x=".9" y="183.3"/><use xlink:href="#u" width="100%" height="100%" x=".9" y="203.1"/><use xlink:href="#u" width="100%" height="100%" x=".3" y="224.4"/><use xlink:href="#u" width="100%" height="100%" x=".3" y="245.4"/></g><g transform="translate(123)scale(.192)"><path fill="#fa0204" d="M1850 1848a77 77 0 0 0 48 1l-18-28"/><path fill="#ce9d09" d="m1888 1776-31-8s0-35 20-32c17 2 12 40 11 40z"/><circle cx="1872.9" cy="1723" r="12.9" fill="#ce9d09"/><path fill="#fa0204" d="M1885 1792c7 18 12 33 5 53m8 4c-10-9-37-6-48-1-5 0-17-83 25-81 39 2 25 82 23 82z"/></g><g transform="translate(123)scale(.192)"><path fill="#fa0204" d="M1815 1866a47 47 0 0 0 54 1l-40-42"/><circle cx="1843.4" cy="1738.3" r="12.9" fill="#ce9d09"/><path fill="#ce9d09" d="m1859 1780-32-1s-5-26 16-27c17-1 17 28 16 28z"/><path fill="#fa0204" d="M1844 1861q-9-21-6-50m-9 51q-12-20-3-52m43 57c-5-6-40-9-54 0-5 0-18-94 29-92 44 2 28 92 25 92z"/></g></g></svg>